<svg preserveAspectRatio="xMidYMid meet" data-bbox="0 0 275.5 66" viewBox="0 0 275.5 66" xmlns="http://www.w3.org/2000/svg" data-type="shape" role="presentation" aria-hidden="true" aria-label=""><g fill="#F16544"><path fill-rule="evenodd" clip-rule="evenodd" d="M187.9 65.7 161.9 0h12L192 45.8 210.2 0h12.1l-26.2 65.7h-8.2z"/><path d="M68.3 9.9h13.3C89.1 9.9 93 13 93 19.4s-3.8 9.5-11.4 9.5H68.3v-19zm25.1 55.8H106L89.6 38.3C93 37.4 96 36 98.3 34c7.7-6.8 7.7-22.1 0-29-3.8-3.3-9-5-15.7-5H57.3v65.7h10.9V39h9.7l15.5 26.7z" fill-rule="evenodd" clip-rule="evenodd"/><path d="M10.9 26.8h12.2c2.7 0 5-.7 6.7-2.3 1.7-1.6 2.4-3.7 2.4-6.4 0-2.6-.9-4.5-2.6-6.1-1.7-1.3-4.1-2.1-7.2-2.1H10.9v16.9zm0 29h13.3c7.5 0 11.4-3.1 11.4-9.5 0-3-.9-5.4-2.7-7.1-1.8-1.7-4.3-2.6-7.5-2.6H10.9v19.2zM0 65.9V0h22.4c6.4 0 11.5 1.4 15.2 4.4 3.7 3 5.5 7 5.5 12.1 0 3.1-.7 6-2 8.2-1.3 2.4-3.1 4.3-5.5 5.7 3.7 1.1 6.4 3.1 8.2 6 1.8 2.7 2.7 6.2 2.7 10.4 0 6-1.8 10.6-5.7 14.1C37.1 64.3 31.9 66 25 66c.1-.1-25-.1-25-.1z"/><path d="M231.8 65.7V0h43.7v9.7h-32.8v17.4h30.2V37h-30.2v19.1h32.8v9.6h-43.7z"/><path fill-rule="evenodd" clip-rule="evenodd" d="m144.6 0 26.1 65.7h-12l-18.2-45.8-18.2 45.8h-11.9L136.5 0h8.1z"/></g></svg>