<svg preserveAspectRatio="xMidYMid meet" data-bbox="0.029 0 292.871 91.5" viewBox="0.029 0 292.871 91.5" xmlns="http://www.w3.org/2000/svg" data-type="shape" role="presentation" aria-hidden="true" aria-label=""><g fill="#F1E3DF"><path d="M64.3 59h9.9V24.8c0-8.9 5.3-15.4 12.9-15.4 5.5 0 10 4.5 10 10V59h9.9V23.4c0-8.3 5.5-14.1 13.9-14.1 5 0 9.1 4.4 9.1 12.1V59h9.9V17.8c0-9.6-7.9-17.5-17.5-17.5-8 0-15.1 3.2-18.2 9.6C101.4 4.2 95.5.3 88.7.3c-6.1 0-11.5 3.2-14.6 8.1V1.6l-9.9 2.9.1 54.5z" fill-rule="evenodd" clip-rule="evenodd"/><path d="M197.4 0c16.9 0 30.7 13.7 30.7 30.5 0 16.9-13.7 30.5-30.7 30.5-16.9 0-30.7-13.7-30.7-30.5S180.5 0 197.4 0zm0 9.1c11.1 0 20.2 9.6 20.2 21.4 0 11.8-9 21.4-20.2 21.4-11.1 0-20.2-9.6-20.2-21.4.1-11.8 9.1-21.4 20.2-21.4z" fill-rule="evenodd" clip-rule="evenodd"/><path fill-rule="evenodd" clip-rule="evenodd" d="M292.9 52.4a8.1 8.1 0 1 1-16.2 0 8.1 8.1 0 0 1 16.2 0z"/><path d="m159.6 1.6-9.9 2.9v67.2c0 5.6-4.6 10.2-10.2 10.2-4.2 0-7.8-1.7-10.5-5l-5.8 7.5c5 5.7 10.6 7.1 17.8 7.1 10.3 0 18.7-8.4 18.7-18.7-.1-23.7-.1-47.4-.1-71.2z" fill-rule="evenodd" clip-rule="evenodd"/><path fill-rule="evenodd" clip-rule="evenodd" d="M274.7 1.9H286l-42.1 89h-11.2l17.8-37.7L226 4.7l9.9-3.3 20.2 40 18.6-39.5z"/><path d="M54.9 25.5C49.5 6.1 35.9-2.7 19.4 2.1 2.3 7.1-3.2 24 1.8 41 6 55.2 15.2 64.1 28.6 64.1c14.6 0 27-9 29.6-23.5h-9.8c-1.5 8.3-9.2 14.5-18.4 14.5s-16.9-6.3-18.4-14.5H1.8l53.1-15.1zm-12.4-5c-10.7 3-21.4 6.1-32.2 9.1-1.2-8.4 3.8-16.4 11.7-18.7 8-2.3 15.6.3 20.5 9.6z" fill-rule="evenodd" clip-rule="evenodd"/></g></svg>